<svg width="1440" height="1440" viewBox="0 0 1440 1440" fill="none" xmlns="http://www.w3.org/2000/svg">
<g clip-path="url(#clip0_30_46)">
<path d="M1331.44 883.299C1365.01 754.689 1378.1 640.243 1368.41 539.345C1357.05 436.795 1314.33 347.079 1240.26 270.203C1164.76 194.156 1050.57 135.655 897.699 94.7024C739.167 52.2332 607.628 44.9062 503.086 72.7207C397.108 101.364 313.564 157.254 252.457 240.391C192.803 321.548 144.087 426.45 108.56 555.702L1331.44 883.299Z" fill="white"/>
<path d="M1331.44 883.299C1296.22 1011.47 1249.21 1116.83 1190.38 1199.37C1129.28 1282.51 1047.43 1338.85 944.849 1368.41C841.44 1396.52 713.297 1390.11 560.428 1349.15C401.896 1306.69 284.31 1247.27 207.672 1170.92C130.206 1093.14 85.7902 1002.97 74.426 900.417C63.3326 800.307 74.716 685.404 108.56 555.702L1331.44 883.299Z" fill="white"/>
<path d="M1190.41 845.519C1216.24 746.59 1226.63 657.008 1219.17 579.396C1210.43 500.513 1177.57 431.502 1120.6 372.367C1062.52 313.87 974.68 268.87 857.09 237.368C735.144 204.7 633.962 199.064 553.546 220.46C472.026 242.493 407.763 285.485 360.758 349.435C314.871 411.863 276.915 494.059 249.587 593.482L1190.41 845.519Z" fill="white"/>
<path d="M1190.41 845.519C1163.32 944.11 1127.48 1023.61 1082.23 1087.1C1035.22 1151.05 972.265 1194.39 893.359 1217.13C813.815 1238.75 715.245 1233.82 597.655 1202.32C475.709 1169.65 385.26 1123.95 326.309 1065.22C266.72 1005.38 232.555 936.024 223.813 857.14C215.28 780.133 223.554 693.251 249.587 593.482L1190.41 845.519Z" fill="white"/>
<path d="M597.501 1202.78C715.091 1234.28 813.664 1239.22 893.209 1217.59C972.115 1194.86 1035.07 1151.51 1082.08 1087.56C1127.33 1024.07 1163.32 944.109 1190.41 845.519C1216.24 746.59 1226.47 657.469 1219.02 579.856C1210.28 500.975 1177.42 431.965 1120.45 372.831C1100.05 352.284 1075.96 333.415 1048.22 316.198L1031.93 376.976C1024.01 406.535 1020.05 421.313 1008.41 428.035C996.763 434.757 981.982 430.8 952.418 422.878L933.596 417.835L765.553 1044.98C757.047 1076.73 724.413 1095.56 692.663 1087.06C660.916 1078.55 642.072 1045.92 650.575 1014.18L503.466 974.759C486.416 970.19 477.889 967.903 473.383 961.683C472.509 960.475 471.761 959.18 471.153 957.82C468.018 950.807 470.305 942.282 474.873 925.234L481.136 901.862C483.956 891.34 495.395 885.827 506.29 885.827C537.663 885.827 563.097 860.396 563.099 829.027C563.098 812.306 555.872 797.274 544.372 786.882C532.468 776.126 526.515 770.748 525.25 769.053C520.492 762.679 520.467 762.597 520.999 754.661C521.141 752.551 522.106 748.96 524.029 741.783C525.878 734.883 526.802 731.431 528.364 728.828C532.209 722.425 539.085 718.459 546.553 718.332C549.589 718.281 553.041 719.207 559.942 721.056L717.784 763.349L818.62 387.027L803.048 382.855C773.484 374.933 758.7 370.969 751.977 359.325C745.255 347.681 749.216 332.901 757.136 303.343L779.417 220.189C691.449 203.995 616.109 204.238 553.397 220.923C471.876 242.956 407.609 285.949 360.603 349.899C314.718 412.327 276.915 494.06 249.587 593.482C223.554 693.251 215.128 780.598 223.661 857.605C232.403 936.488 266.57 1005.85 326.158 1065.68C385.109 1124.41 475.557 1170.11 597.501 1202.78Z" fill="#4B78C7"/>
</g>
<defs>
<clipPath id="clip0_30_46">
<rect width="1440" height="1440" fill="white"/>
</clipPath>
</defs>
</svg>
